<?xml version="1.0" encoding="utf-8"?>
<!-- Generator: Adobe Illustrator 23.0.1, SVG Export Plug-In . SVG Version: 6.00 Build 0)  -->
<svg version="1.1" id="alanavatar" xmlns="http://www.w3.org/2000/svg" xmlns:xlink="http://www.w3.org/1999/xlink" x="0px" y="0px"
	 viewBox="0 0 790.4 804.2" style="enable-background:new 0 0 790.4 804.2;" xml:space="preserve">
<style type="text/css">
	.st0{fill:#DAAD86;}
	.st1{fill:#DDD3C7;}
	.st2{fill:#E8CACD;}
	.st3{fill:#212126;}
	.st4{fill:none;stroke:#000000;stroke-width:0.25;stroke-miterlimit:10;}
	.st5{fill:#D1ACB4;}
	.st6{fill:none;stroke:#131316;stroke-width:0.25;stroke-miterlimit:10;}
	.st7{fill:#352A2E;}
	.st8{fill:#EE4289;}
	.st9{fill:none;stroke:#77616A;stroke-width:0.25;stroke-linecap:round;stroke-linejoin:round;}
	.st10{fill:none;stroke:#6D555E;stroke-width:0.25;stroke-linecap:round;stroke-miterlimit:10;}
	.st11{fill:none;stroke:#231F20;stroke-width:0.25;stroke-miterlimit:10;}
	.st12{fill:#EFEFEF;}
	.st13{fill:none;stroke:#231F20;stroke-width:0.25;stroke-linecap:round;stroke-miterlimit:10;}
</style>
<g id="Background">
	<path id="badge-shadow" class="st0" d="M434.6,47.7l243.7,117.3c22.5,10.9,38.9,31.4,44.4,55.7l60.2,263.7
		c5.6,24.4-0.3,50-15.9,69.5L598.3,765.4c-15.6,19.5-39.2,30.9-64.1,30.9H263.7c-25,0-48.6-11.4-64.2-30.9L30.8,554
		C15.2,534.4,9.4,508.8,15,484.5l60.2-263.7c5.6-24.4,21.9-44.9,44.4-55.7L363.3,47.7C385.8,36.9,412,36.9,434.6,47.7z"/>
	<path id="badge" class="st1" d="M431.6,16l243.7,117.3c22.5,10.9,38.9,31.4,44.5,55.7l60.2,263.7c5.6,24.4-0.3,50-15.9,69.5
		L595.3,733.6c-15.6,19.5-39.2,30.9-64.2,30.9H260.7c-25,0-48.6-11.4-64.2-30.9L27.8,522.2C12.2,502.6,6.4,477.1,12,452.7L72.2,189
		c5.6-24.4,21.9-44.9,44.5-55.7L360.3,16C382.8,5.1,409,5.1,431.6,16z"/>
</g>
<g id="Head">
	<g id="face">
		<path id="head-shadow" class="st0" d="M109.1,410c0,0-17.1,54.7,28.4,63.6c5,15.1,12.5,34.3,23.8,55.6c5.8,10.9,15.7,29.3,31.4,49
			c26.6,33.4,54.9,51.9,79.4,67.7c17.2,11.1,41.5,24.9,72.6,37.3c16,5.6,42.3,12.5,74.7,10.2c53.1-3.9,89.6-30.1,103.8-41.6
			c25.7-17.4,63.4-47.7,95.1-96.1c18.4-28.1,30-55,37.4-76.8c0,0,12.9,0,23.5-9.6c20.4-18.4,12.6-56.8,11.4-61.3
			C682.3,376.9,566.6,358.7,109.1,410z"/>
		<path id="face_1_" class="st2" d="M398.6,148.6c151.3,0,253.5,138.3,253.1,253.1c-0.3,86.7-59.1,150.7-86.1,180
			c-30.8,33.5-81.2,88.4-156.9,91.2c-67.6,2.5-116.9-38-147.1-62.8c-24.8-20.4-116.6-95.8-116.1-208.4
			C146.1,282.5,249.8,148.6,398.6,148.6z"/>
		<g id="hair">
			<path class="st3" d="M656.5,265.2c11.5-14.2,4.5-40.3-15.4-66.3c-2.7-6.1-6.5-13-11.7-19.8c-9.7-12.6-20.2-19.3-28.4-24.5
				c-8-5-20.9-11.9-38.5-16.4c5.8-17.7,5-33-3.8-41.8c-14.5-14.5-46.4-7.4-77.9,15.3c-1.2-4.6-3.3-8.7-6.5-11.8
				c-14.5-14.5-46.1-7.4-77.6,15c-4.9-0.2-9.6-0.3-14-0.4c-1.1-3.8-3-7.1-5.7-9.8c-13.4-13.4-42.6-7-71.7,13.6
				c-29.2,3.7-53.9,9.4-73,14.7c-8,3.6-21.8,10.6-36.3,22.6c-68.8,57.1-61.3,152-54.5,174c1.3,4.2,4.4,14.2,13.4,18.9
				c6.1,3.1,13.9,3.3,18.6,1.1c17.2-7.8,3-50.3,11.8-79.3c1.3-4.2,3-8.1,5.2-11.8c16.1-3.5,35.8-15,53.5-32.4c1.1,2.6,2.7,5,4.7,7
				c14.7,14.7,48.5,5.5,80.3-20.1c-0.8,10.4,1.5,19.1,7.4,25c14.5,14.5,46.4,7.4,77.9-15.3c1.2,4.6,3.3,8.7,6.5,11.8
				c17.1,17.1,58,4.2,94.4-28.5c1.2,0.3,2.5,0.7,3.7,1c8.4,11.4,19.4,22.8,32.3,33.3c21.5,17.4,44.3,28.8,63.7,33.1
				c-0.3,28.6,2.4,68.8,19.5,74c6.6,2,13.1-2,13.3-2.1c14.5-9.2,9-37.9,5.5-76.6C654.3,267.6,655.5,266.5,656.5,265.2z"/>
			<path class="st4" d="M656.5,265.2c11.5-14.2,4.5-40.3-15.4-66.3c-2.7-6.1-6.5-13-11.7-19.8c-9.7-12.6-20.2-19.3-28.4-24.5
				c-8-5-20.9-11.9-38.5-16.4c5.8-17.7,5-33-3.8-41.8c-14.5-14.5-46.4-7.4-77.9,15.3c-1.2-4.6-3.3-8.7-6.5-11.8
				c-14.5-14.5-46.1-7.4-77.6,15c-4.9-0.2-9.6-0.3-14-0.4c-1.1-3.8-3-7.1-5.7-9.8c-13.4-13.4-42.6-7-71.7,13.6
				c-29.2,3.7-53.9,9.4-73,14.7c-8,3.6-21.8,10.6-36.3,22.6c-68.8,57.1-61.3,152-54.5,174c1.3,4.2,4.4,14.2,13.4,18.9
				c6.1,3.1,13.9,3.3,18.6,1.1c17.2-7.8,3-50.3,11.8-79.3c1.3-4.2,3-8.1,5.2-11.8c16.1-3.5,35.8-15,53.5-32.4c1.1,2.6,2.7,5,4.7,7
				c14.7,14.7,48.5,5.5,80.3-20.1c-0.8,10.4,1.5,19.1,7.4,25c14.5,14.5,46.4,7.4,77.9-15.3c1.2,4.6,3.3,8.7,6.5,11.8
				c17.1,17.1,58,4.2,94.4-28.5c1.2,0.3,2.5,0.7,3.7,1c8.4,11.4,19.4,22.8,32.3,33.3c21.5,17.4,44.3,28.8,63.7,33.1
				c-0.3,28.6,2.4,68.8,19.5,74c6.6,2,13.1-2,13.3-2.1c14.5-9.2,9-37.9,5.5-76.6C654.3,267.6,655.5,266.5,656.5,265.2z"/>
		</g>
		<g id="inner-face">
			<g id="nose">
				<path class="st5" d="M437.3,482.1c0.8-5.8,0.5-13.1-1.3-22.2c-4.6-22.8-12.1-42.4-28.3-42.8s-25.4,18.7-30.4,41.4
					c-2.3,10.4-2.9,18-2,23.7c-6.9,5.2-11.1,12.2-11.1,19.8c0,16.2,18.9,18.8,42.1,18.8s42.1-2.6,42.1-18.8
					C448.4,494.3,444.2,487.3,437.3,482.1z"/>
				<path class="st6" d="M437.3,482.1c0.8-5.8,0.5-13.1-1.3-22.2c-4.6-22.8-12.1-42.4-28.3-42.8s-25.4,18.7-30.4,41.4
					c-2.3,10.4-2.9,18-2,23.7c-6.9,5.2-11.1,12.2-11.1,19.8c0,16.2,18.9,18.8,42.1,18.8s42.1-2.6,42.1-18.8
					C448.4,494.3,444.2,487.3,437.3,482.1z"/>
			</g>
			<g id="open-mouth">
				<path id="open-mouth-black" class="st7" d="M488.1,549.5c-9.6,62.9-76.5,62.9-76.5,62.9c-72.2,0-87.1-62.9-87.1-62.9H488.1z"/>
				<path id="open-mouth-tongue" class="st8" d="M367,598.2c3.3-4.1,7.1-7.9,11.2-11.2c14.6-11.4,34.7-13,51-4
					c7.1,3.6,12.8,9.5,16,16.8c-12.5,4.9-25.8,7.3-39.2,7.2C392.5,606.4,379.3,603.4,367,598.2z"/>
				<path id="open-mouth-outline" class="st9" d="M488.1,549.5c-9.6,62.9-76.5,62.9-76.5,62.9c-72.2,0-87.1-62.9-87.1-62.9H488.1z"
					/>
			</g>
			<path id="mouth" class="st10" d="M488.1,549.5c-9.6,62.9-76.5,62.9-76.5,62.9c-72.2,0-87.1-62.9-87.1-62.9"/>
			<g id="eyebrows">
				<path class="st3" d="M307.8,341.7c31.4-3.7,58-1.8,59.3,4.2c1.4,6-23,13.8-54.4,17.4c-31.4,3.7-58,1.8-59.3-4.2
					C252.1,353.1,276.4,345.3,307.8,341.7z"/>
				<path class="st3" d="M432.3,345.5c1.4-6,28-7.7,59.4-3.8c31.4,3.9,55.6,11.8,54.2,17.8c-1.4,6-28,7.7-59.4,3.8
					C455.1,359.4,430.9,351.5,432.3,345.5z"/>
			</g>
			<g id="eyes">
				<g id="left-eye">
					<path d="M326.8,380.7c11.5,0,20.8,9.3,20.8,20.8s-9.3,20.8-20.8,20.8c-11.5,0-20.8-9.3-20.8-20.8S315.4,380.7,326.8,380.7z"/>
					<path class="st11" d="M326.8,380.7c11.5,0,20.8,9.3,20.8,20.8s-9.3,20.8-20.8,20.8c-11.5,0-20.8-9.3-20.8-20.8
						S315.4,380.7,326.8,380.7z"/>
					<circle class="st12" cx="318.8" cy="398.5" r="2.8"/>
				</g>
				<g id="right-eye">
					<path d="M472.4,380.7c11.5,0,20.8,9.3,20.8,20.8s-9.3,20.8-20.8,20.8c-11.5,0-20.8-9.3-20.8-20.8S460.9,380.7,472.4,380.7z"/>
					<path class="st11" d="M472.4,380.7c11.5,0,20.8,9.3,20.8,20.8s-9.3,20.8-20.8,20.8c-11.5,0-20.8-9.3-20.8-20.8
						S460.9,380.7,472.4,380.7z"/>
					<path class="st12" d="M464.9,396c1.5,0,2.8,1.2,2.8,2.8s-1.2,2.8-2.8,2.8c-1.5,0-2.8-1.2-2.8-2.8S463.3,396,464.9,396z"/>
				</g>
				<path id="right-eye2" class="st13" d="M493.2,403c0,17.5-20.8,17.5-20.8,17.5c-22,0-20.8-17.5-20.8-17.5"/>
				<path id="left-eye2" class="st11" d="M347.6,403c0,17.5-20.7,17.5-20.7,17.5c-22,0-20.8-17.5-20.8-17.5"/>
			</g>
		</g>
	</g>
	<g id="ears">
		<g id="left-ear">
			
				<ellipse transform="matrix(0.7071 -0.7071 0.7071 0.7071 -247.201 206.584)" class="st2" cx="125.8" cy="401.7" rx="36.3" ry="36.3"/>
			<path class="st10" d="M159.5,404.3c0,0-23.2,15.2-39.9-2.7"/>
			<path class="st10" d="M130.9,386.1c0,0-20.1,12.7-8.1,31"/>
		</g>
		<g id="right-ear">
			<circle class="st2" cx="672.1" cy="401.7" r="36.3"/>
			<path class="st10" d="M636.6,403.7c0,0,22.9,15.6,39.9-2"/>
			<path class="st10" d="M665.5,386c0,0,19.9,13.1,7.6,31.1"/>
		</g>
	</g>
</g>
</svg>
